<svg width="400" height="400" fill="none" xmlns="http://www.w3.org/2000/svg"><path d="M395.819 118.072c.954 21.075 1.181 27.798 1.181 81.439 0 53.619-.227 60.364-1.181 81.439-.976 21.007-4.315 35.36-9.197 47.919a96.52 96.52 0 01-22.777 34.974 96.793 96.793 0 01-34.972 22.801c-12.558 4.883-26.933 8.199-47.939 9.175-21.051.954-27.795 1.181-81.434 1.181-53.639 0-60.36-.227-81.434-1.181-21.006-.976-35.358-4.292-47.916-9.175a96.865 96.865 0 01-34.995-22.801 96.841 96.841 0 01-22.777-34.974c-4.882-12.559-8.22-26.912-9.174-47.919C2.25 259.875 2 253.13 2 199.511c0-53.641.25-60.364 1.204-81.439.953-21.03 4.292-35.382 9.174-47.941a97.223 97.223 0 0122.777-34.974A96.512 96.512 0 0170.15 12.379c12.558-4.883 26.91-8.222 47.916-9.175C139.14 2.227 145.861 2 199.5 2c53.639 0 60.383.227 81.434 1.204 21.006.953 35.381 4.292 47.939 9.175a96.428 96.428 0 0134.972 22.778c10.968 10.97 17.736 22.006 22.777 34.974 4.882 12.559 8.221 26.912 9.197 47.941zM199.5 281.223a81.715 81.715 0 0057.787-23.928 81.727 81.727 0 00.016-115.574 81.716 81.716 0 00-139.51 57.768 81.726 81.726 0 0023.927 57.79 81.716 81.716 0 0057.78 23.944zm105.302-163.446c13.012 0 23.594-10.606 23.594-23.71 0-13.08-10.582-23.686-23.594-23.686a23.611 23.611 0 00-21.798 14.638 23.6 23.6 0 00-1.774 9.048 23.61 23.61 0 006.869 16.744 23.602 23.602 0 007.658 5.146 23.601 23.601 0 009.045 1.82z" fill="#000"/></svg>